<svg id="Layer_1" data-name="Layer 1" xmlns="http://www.w3.org/2000/svg" viewBox="0 0 619.78 620"><defs><style>.cls-1{fill:none;}</style></defs><path d="M856.57,254.39a5.45,5.45,0,0,0-1.93.36c-1.35.51-2.7,1-4,1.56h0l-.09,0h0l-.09,0h0l-.08,0h0l-.08,0h0l-.36.15h0l-.07,0h0l-.06,0h0l0,0,0,0-.05,0,0,0,0,0-.05,0h0l-.05,0h0l0,0,0,0-.06,0,0,0-.07,0h0l-.08,0h0l-.39.16h0l-.09,0h0l-.08,0h0l-.09,0h0l-.09,0h0l-.09,0h0l-.1,0h0a277,277,0,0,0-30.61,14.72h0q-3.84,2.14-7.6,4.41a5.5,5.5,0,0,0,2.85,10.21,5.38,5.38,0,0,0,2.82-.79A266.62,266.62,0,0,1,858.52,265a5.5,5.5,0,0,0-1.95-10.65ZM773,304.62a5.46,5.46,0,0,0-3.63,1.37q-3.52,3.09-6.94,6.3h0l-1,.94h0l-.07.07h0l-.07.06h0l-.7.67h0l-.07.06h0l-.07.06h0l-.07.06h0l-.07.06v0l-.06.05h0l-.06.06v0l-.06.05h0l-.06.06h0c-.19.17-.37.35-.55.53h0l-.06.07h0l-.06.06h0l-.06.06h0l-.06.06h0l-.06.06h0l-.06,0,0,0,0,.06h0l-.06.07h0l-.62.61h0l0,.06h0l-.05.06h0l0,.06h0l-.06.06h0l0,.05,0,0,0,.05h0l-.06.06h0l-.06.06h0l-.06.06v0l-.41.4h0l-.07.07h0l-.06.06h0l-.06.06h0l-.06.05v0l-.06.06h0l-.06,0,0,0-.05,0v0l-.06.05v0l-.06.06h0l-.07.07h0c-.14.14-.28.27-.41.41h0l-.06.06h0l-.05,0,0,0,0,.05,0,0,0,0,0,0-.05,0,0,0,0,0,0,0-.05.05,0,0,0,0,0,0-.05,0,0,0,0,.05,0,0-.39.39h0l0,.05,0,0,0,.05,0,0,0,0,0,0-.05,0,0,0,0,0,0,0,0,0,0,0,0,.05,0,0,0,.05,0,0-.05.05,0,0,0,0,0,0-.32.33h0l-.06.06v0l-.05.05,0,0,0,0,0,0,0,0,0,0,0,0,0,0,0,0,0,0,0,0,0,0,0,0,0,0,0,0,0,0,0,0,0,0,0,0,0,0,0,0,0,0,0,0,0,0-.05.05,0,.06h0l-.06.06,0,0,0,0,0,0,0,0,0,0,0,0,0,0,0,0,0,0,0,0,0,0,0,0,0,0,0,0,0,0,0,0,0,0,0,0,0,0,0,0,0,0,0,0,0,0,0,.05,0,0,0,.06,0,0-.14.14v0l-.06.06,0,0,0,0,0,0,0,0,0,0,0,0,0,0,0,0,0,0-.05,0,0,0,0,.05,0,0-.05.06,0,0,0,.05,0,0-.05.06h0l0,.06,0,0-.06.07h0l-.28.3h0l-.06.07,0,0-.05.06,0,0,0,.05,0,0,0,0,0,0,0,.05,0,0-.05.06,0,0,0,.05,0,0-.05.06,0,0,0,.05,0,0-.06.06h0l-.06.06v0l-.42.45h0l-.06.07h0l-.06.07,0,0-.05.06h0l-.06.06h0l-.06.07h0l-.06.06h0l-.07.07h0l-.07.07h0l-.56.61h0l-.06.07h0l-.06.06h0l-.06.07h0l-.06.06h0l-.06.07h0l-.06.07h0c-.24.25-.47.5-.7.76h0l-.07.08h0l-.07.07h0L747,328h0l-.07.08h0l-.14.15h0l-.84.93h0q-5.7,6.35-11,13A5.5,5.5,0,0,0,743.6,349a268.22,268.22,0,0,1,33-34.76,5.5,5.5,0,0,0-3.63-9.63ZM712.44,381a5.49,5.49,0,0,0-4.86,2.91h0l0,.07h0l-.31.59h0l-.05.08h0l0,.08h0l0,.08h0l0,.08h0l0,.08h0l-.5.94h0l0,.08h0l-.05.08h0c-.15.29-.3.57-.44.86h0l0,.08h0l0,.08h0l0,.08h0l0,.08h0l-.36.69h0l-.62,1.21s0,0,0,0l0,.08h0l0,.07v0l0,.07h0l0,.08h0l-.44.87h0l0,.09h0l0,.08h0l-.42.86h0l0,.08h0l0,.08h0l-.05.08h0l0,.08h0l-.43.86h0l0,.08h0l0,.08v0l0,.08h0l-.46,1h0l0,.08h0l-.37.78h0l0,.07v0l0,.07v0l0,.07v0l0,.06v0l0,.07v0l0,.07v0l0,.07h0c-.08.17-.16.34-.25.51h0l0,.07v0l0,.07v0l0,.07v0l0,.07v0l0,.06v0l0,.06v0l0,.07v0l0,.07h0l0,.08h0c-.06.11-.11.22-.16.33v0l0,.08h0l0,.08h0l0,.08h0l0,.07,0,0,0,.06v0l0,.06v0l0,.06v0l0,.06,0,0,0,.07h0l-.15.32v0l0,.07v0l0,.07v0l0,.07,0,0,0,.06v0l0,.06v0l0,.06v0l0,.06v0l0,.06v0l0,.07v0l-.15.32v0l0,.07v0l0,.07v0l0,.06v0l0,.06,0,0,0,.06,0,0,0,.06,0,0,0,.06v0l0,.06v0l0,.07h0l-.14.32v0l0,.05,0,0,0,.05,0,0,0,.05,0,.05,0,0,0,.05,0,.05,0,0,0,0,0,0,0,.05,0,.05,0,0,0,.05,0,.05,0,.05,0,0,0,.05,0,0,0,.05,0,.09,0,0,0,.06v0l0,.06v0l0,.05,0,0,0,.05,0,.05,0,0,0,.05,0,0,0,.05,0,0,0,.05,0,0,0,.05,0,0,0,.05,0,.05,0,0,0,0,0,.09v0l0,.07,0,0,0,.06,0,0,0,.05v0l0,.05,0,.05,0,0,0,.05,0,.05,0,.05,0,0,0,0,0,.06,0,0,0,.06,0,0,0,.06,0,0,0,.07v0l0,.09h0l0,.09h0l0,.08,0,0,0,.07v0l0,.07,0,0,0,.06,0,0,0,0,0,0,0,.06v0l0,.06v0l0,.06v0l0,.07v0l0,.07v0l-.08.19h0l0,.08v0l0,.07v0l0,.07v0l0,.07v0l0,.07v0l0,.07v0l0,.06v0l0,.07v0l0,.08v0c-.06.13-.11.25-.16.38v0l0,.07v0l0,.07v0l0,.08v0l0,.07v0l0,.07v0l0,.07v0l0,.07v0l0,.07v0l0,.08h0l-.12.29h0l0,.09h0l0,.08v0l0,.08v0l0,.07v0l0,.07v0l0,.08v0l0,.08h0l0,.09h0l-.24.58h0l0,.1h0l0,.09h0l0,.09h0l0,.08v0l0,.08h0l0,.09h0l-.24.58h0l0,.09h0l0,.09h0l0,.08h0l0,.09h0c-.29.72-.58,1.44-.86,2.16h0q-3.33,8.46-6.12,17.17a5.5,5.5,0,0,0,10.48,3.34,265.89,265.89,0,0,1,18.67-44.16,5.5,5.5,0,0,0-4.84-8.09Zm-29.7,92.84a5.51,5.51,0,0,0-5.45,4.8c-.11.91-.23,1.83-.34,2.75h0c0,.14,0,.28-.05.42h0l-.06.55h0c0,.14,0,.27-.05.41h0v.14c0,.13,0,.26,0,.4h0v.13h0l0,.27h0v.15l0,.12h0l0,.27h0v.14c0,.13,0,.27,0,.4V485l0,.26h0v.28l0,.26v.28h0l0,.26v.28h0v.55h0v.55h0v1.52h0v25.2h0v6.16h0v.1h0c0,.3,0,.59,0,.89h0v.21h0v.22h0v.21h0v.1h0v.44h0V523h0v.1h0v.1h0v.1h0v.1h0v.1h0v.11h0v.11h0v.11h0c.05,1.56.11,3.12.19,4.67a5.49,5.49,0,0,0,5.49,5.21h.28a5.51,5.51,0,0,0,5.22-5.77c-.23-4.47-.34-9-.34-13.5a270.76,270.76,0,0,1,2.2-34.45,5.49,5.49,0,0,0-4.75-6.15,5.65,5.65,0,0,0-.71,0Zm4.92,97.39a5.42,5.42,0,0,0-1.26.15,5.5,5.5,0,0,0-4.1,6.6q1.82,7.77,4.06,15.35h0l0,.09h0l0,.1h0l0,.1h0l0,.1h0l.18.61h0l0,.09v0l0,.08v0l0,.09h0l0,.1h0l.18.6v0l0,.09h0l0,.08v0l0,.09h0l0,.08v0l0,.09h0l0,.1h0c.05.17.1.34.16.51h0l0,.08v0l0,.07v0l0,.07v0l0,.07v0l0,.06v0l0,.07v0l0,.07v0l.06.19v0l0,.07v0l0,.07v0l0,.07v0l0,.07v0l0,.06v0l0,.07v0l0,.07v0l0,.06v0l0,.06v0l0,.07v0l0,.09,0,0v.06l0,.05,0,0v0l0,.05v0l0,0V599l0,0v.05l0,0v0l0,.06,0,0,0,.06v0l0,0v.05l0,.06v0l0,.09,0,.06v0l0,0v0l0,0,0,.05v0l0,0v.06l0,0,0,.06v0l0,0v.05l0,0v0l0,.06v0l0,.05v0l0,0,0,.05,0,.09v0l0,0,0,.05v0l0,0,0,.06v0l0,.05v0l0,0v0l0,0v.05l0,0,0,0v.06l0,0,0,.06v0l0,.06v0l0,.15v0l0,.06v0l0,0,0,0v.05l0,0,0,.06v0l0,0v0l0,.06v0l0,.06v0l0,.06v0l0,.07h0l.12.36h0l0,.08v0l0,.08h0l0,.08v0l0,.07v0l0,.07v0l0,.07v0l0,.08h0c.07.18.13.36.19.54h0l0,.09h0l0,.08h0l0,.08h0l0,.09h0l0,.08h0l.25.73h0l0,.09h0l0,.08h0l0,.08h0l.39,1.1h0l.35,1h0l0,.09h0q3.14,8.74,6.83,17.22h0l0,.07h0a5.49,5.49,0,0,0,5,3.3,5.36,5.36,0,0,0,2.2-.46,5.49,5.49,0,0,0,2.84-7.24A265,265,0,0,1,693,575.49a5.49,5.49,0,0,0-5.35-4.25Zm39,89.35a5.5,5.5,0,0,0-4.57,8.56,278.24,278.24,0,0,0,24.69,31.55h0l.07.07h0l.06.07h0l.06.06,0,0,0,.06h0l.06.06v0l.06.06h0l.06.07h0l.06.07h0l.07.07h0l.21.23v0l.06.05,0,0,0,0,0,0,0,0,0,0,0,0,0,0,0,0,0,0,0,0,0,0,0,0,0,0,0,0,0,0,0,0,0,.05,0,0,0,0,0,0,.05.06h0c.1.12.21.23.31.34l0,0,.06.06h0l.06.06h0l.06.07h0l.06.06v0l.06.06h0l.06.06h0l.06.06h0l.06.06h0c1.41,1.52,2.85,3,4.3,4.52a5.5,5.5,0,1,0,7.88-7.67A268.66,268.66,0,0,1,731.19,663a5.49,5.49,0,0,0-4.57-2.43Zm68,69.91a5.5,5.5,0,0,0-3.22,10q9.4,6.72,19.38,12.66h0l1,.59h0l.08,0h0l.07,0h0l.07,0h0l.07,0h0l.07,0,0,0,.07,0h0l.09.05h0l.18.1h0l.27.16h0l.09,0,0,0,.07,0h0l.07,0h0l.06,0h0l.06,0h0l.06,0,0,0,.06,0,0,0,.06,0,0,0,0,0,0,0,.07,0h0l.07,0h0l.08.05h0l.09,0,0,0,.05,0,0,0,0,0,.05,0,0,0,0,0,.05,0,0,0,0,0,0,0,0,0,.05,0,0,0,0,0,.05,0,0,0,0,0,.05,0,0,0,0,0,.05,0,0,0,0,0,.05,0h0l.07,0,.09,0,.05,0,0,0,0,0,0,0,.06,0,0,0,.05,0,0,0,0,0,0,0,0,0,0,0,.06,0,0,0,.05,0,0,0,.06,0,0,0,.06,0,0,0,.06,0h0l.06,0h0l.07,0h0l.26.14h0l.06,0h0l.06,0h0l.07,0h0l.07,0h0l.06,0,0,0,.06,0,0,0,.07,0h0l.08,0h0l.07,0h0l.07,0h0l.42.23h0l.08,0h0l.07,0,0,0,.07,0h0l.07,0h0l.06,0h0l.07,0h0l.07,0h0l.07,0h0l.07,0h0l.59.32h0l.08,0h0l.08,0h0l.08,0h0l.07,0h0l.08.05h0l.08,0h0l.67.37h0l.08,0h0l.08,0h0l.08,0h0l.07,0h0l.07,0h0l.08,0h0l.08,0h0l.07,0h0l.59.31h0l.07,0h0l.07,0h0l.06,0,0,0,.06,0,0,0,.06,0h0l.06,0,0,0,0,0,0,0,.06,0h0l.06,0h0l.06,0,0,0,.06,0h0l.13.07h0l.05,0,0,0,0,0,0,0,0,0,0,0,.05,0,0,0,0,0,0,0,0,0,0,0,0,0,0,0,.05,0,0,0,0,0,0,0,0,0,0,0,.05,0,0,0,.05,0,0,0,0,0,.18.1h0l.07,0,0,0,.06,0,0,0,.06,0,0,0,.06,0h0l.06,0,0,0,0,0,0,0,.05,0,0,0,0,0,0,0,0,0,0,0,.06,0,0,0,.07,0h0l.36.19h0l.08,0h0l.08,0h0l.07,0h0l.07,0h0l.07,0h0l.07,0,0,0,.07,0h0l.08,0h0l.09,0h0l.56.28h0l.09,0h0l.09,0h0l.09,0h0c2.39,1.2,4.78,2.37,7.2,3.51a5.5,5.5,0,0,0,4.67-10,266.83,266.83,0,0,1-41.37-24.25,5.47,5.47,0,0,0-3.19-1ZM882.8,772a5.5,5.5,0,0,0-1.43,10.81,276.06,276.06,0,0,0,43.19,7.81h.11l.55.06h.55l.43,0h.67l.21,0h1.69l.24,0h.64l.47,0h.51l.43,0a5.5,5.5,0,0,0,.42-11,266.23,266.23,0,0,1-47.27-8,5.8,5.8,0,0,0-1.41-.18Zm145.27-1.62a5.81,5.81,0,0,0-1.53.21,266,266,0,0,1-47.08,9.07,5.5,5.5,0,0,0,.55,11l.55,0a276.55,276.55,0,0,0,49-9.45,5.5,5.5,0,0,0-1.52-10.78Zm87.25-43.47A5.45,5.45,0,0,0,1112,728a267.28,267.28,0,0,1-40.82,25.17,5.5,5.5,0,0,0,2.46,10.42,5.41,5.41,0,0,0,2.43-.57,276.85,276.85,0,0,0,42.53-26.22,5.51,5.51,0,0,0-3.31-9.9Zm66.4-71.4a5.48,5.48,0,0,0-4.63,2.53,268.53,268.53,0,0,1-29.39,37.91,5.5,5.5,0,0,0,8,7.5,277.48,277.48,0,0,0,24-29.66h0l.11-.17h0l0-.07v0l0-.06v0l0-.06v0l0-.06v0l0-.07v0l0-.06,0,0,0-.07,0,0,0-.06,0,0,.17-.25,0,0,0,0,0,0,0,0,0,0,0,0,0,0,0,0,0-.05,0,0,0,0,0,0,0,0,0,0,0-.05v0l0,0,0,0,0,0,0,0,0-.06v0l0-.06h0q2.63-3.83,5.14-7.75a5.49,5.49,0,0,0-1.67-7.59,5.42,5.42,0,0,0-3-.87Zm36.94-90.2a5.5,5.5,0,0,0-5.37,4.37,264.91,264.91,0,0,1-14.09,45.82,5.5,5.5,0,0,0,10.17,4.19,274.61,274.61,0,0,0,14.68-47.77,5.51,5.51,0,0,0-5.39-6.61Zm2.75-97.48a5.9,5.9,0,0,0-.83.06,5.5,5.5,0,0,0-4.61,6.27,270,270,0,0,1,3,40.35c0,2.5,0,5-.1,7.54a5.5,5.5,0,0,0,5.34,5.65h.16a5.5,5.5,0,0,0,5.49-5.35c0-1.87.09-3.75.1-5.63h0v-1h0V514.5h0v-.33h0v-.32h0V502.75c0-.1,0-.2,0-.29v0c0-.1,0-.2,0-.3v0l0-.29v0c0-.1,0-.19,0-.3v0l0-.31v0c0-.11,0-.19,0-.3v0c0-.11,0-.2,0-.31v0c0-.11,0-.2,0-.32h0c0-.12,0-.22,0-.33h0q-.73-13.83-2.78-27.29a5.5,5.5,0,0,0-5.43-4.66Zm-31.78-92.15a5.5,5.5,0,0,0-4.78,8.2,265.72,265.72,0,0,1,19.66,43.72,5.51,5.51,0,0,0,5.2,3.71,5.3,5.3,0,0,0,1.79-.3,5.49,5.49,0,0,0,3.41-7q-3.72-10.8-8.29-21.17h0l-.16-.36h0l-.39-.89h0l0-.08h0l0-.07v0l0-.08h0l0-.08h0l0-.08h0c-.07-.18-.15-.35-.23-.53h0l0-.07v0l0-.07v0l0-.07v0l0-.08h0l0-.08v0l0-.07v0l0-.07v0l-.24-.52h0l0-.07v0l0-.07v0l0-.06v0l0-.07v0l0-.07v0l0-.07v0l0-.07h0l0-.08h0l0-.09h0l-.2-.42v0l0-.07v0l0-.06v0l0-.06,0,0,0-.06,0,0,0-.06v0l0-.06v0l0-.06v0l0-.06,0,0-.19-.42h0l0-.07v0l0-.07v0l0-.07v0l0-.06v0l0-.06,0,0,0-.06v0l0-.06v0l0-.06v0l0-.07v0c-.07-.14-.14-.28-.2-.42h0l0-.07v0l0-.07h0l0-.08v0l0-.06v0l0-.06v0l0-.07v0l0-.07v0l0-.07h0l0-.07v0l-.24-.51h0l0-.07v0l0-.07v0l0-.08h0l-.08-.17h0l0-.09h0l-.33-.69v0l0-.07v0l0-.07h0l0-.08h0l0-.08h0l-.34-.69h0l0-.08h0l0-.08h0l0-.08h0l0-.08h0l0-.08h0c-.15-.32-.31-.64-.47-1h0q-3.13-6.27-6.56-12.36a5.51,5.51,0,0,0-4.8-2.8Zm-62.26-75a5.5,5.5,0,0,0-3.55,9.71,267.72,267.72,0,0,1,33.82,34,5.5,5.5,0,0,0,4.24,2,5.5,5.5,0,0,0,4.23-9,279.12,279.12,0,0,0-35.21-35.41,5.46,5.46,0,0,0-3.53-1.29Zm-84.67-48.34a5.5,5.5,0,0,0-1.82,10.69,265.49,265.49,0,0,1,43.61,19.93,5.5,5.5,0,0,0,5.45-9.56q-11.46-6.54-23.58-12h0l-.18-.08h0l-.89-.4h0l-.17-.08h0l-.08,0h0l-.08,0h0l-.08,0h0l-.8-.35h0l-.08,0h0l-.08,0h0l-.09,0h0l-.09,0h0l-.18-.08h0l-.52-.23h0l-.07,0h0l-.07,0,0,0-.06,0h0l-.06,0h0l-.06,0h0l-.06,0h0l-.07,0h0l-.07,0h0l-.34-.14h0l-.07,0h0l-.06,0h0l-.06,0h0l-.06,0,0,0,0,0,0,0-.05,0,0,0-.06,0h0l-.06,0h0l-.07,0h0l-.08,0h0l-.33-.14,0,0-.07,0h0l-.07,0h0l-.06,0h0l-.06,0h0l-.06,0h0l-.06,0h0l-.06,0h0l0,0,0,0-.06,0,0,0-.06,0h0l-.16-.06h0l-.06,0,0,0,0,0,0,0,0,0,0,0,0,0,0,0,0,0-.06,0,0,0,0,0,0,0,0,0h-.05l0,0h0l0,0,0,0-.05,0,0,0-.07,0h0l-.1,0h0l-.08,0h0l-.06,0h0l-.05,0h0l-.06,0,0,0-.06,0,0,0-.06,0,0,0-.06,0,0,0-.06,0,0,0,0,0,0,0-.06,0h0l-.08,0h0l-.38-.16h0l-.08,0h0l-.07,0h0l-.07,0,0,0-.07,0h0l-.07,0h0l-.09,0h0l-.09,0h0l-.58-.23h0l-.1,0h0l-.09,0h0l-.08,0h0l-.09,0h0l-.09,0h0l-.08,0h0l-.69-.27h0l-.09,0h0l-.08,0h0l-.09,0h0l-.09,0h0l-.09,0h0q-4.63-1.81-9.34-3.47a5.53,5.53,0,0,0-1.82-.31ZM952.5,237H939.63l-.37,0h-.42l-.48,0H938l-.49,0h-.4l-.49,0h-.3l-.78,0h0a277.89,277.89,0,0,0-32.75,3.94,5.5,5.5,0,1,0,2,10.82A269.26,269.26,0,0,1,952.5,248h0a269.84,269.84,0,0,1,41.9,3.27,5.07,5.07,0,0,0,.86.07,5.5,5.5,0,0,0,.85-10.93q-12-1.89-24.29-2.75h0l-.34,0h0l-1.2-.08h0l-.34,0h0l-.33,0h-.54l-.23,0h-.11l-.24,0h-.1l-.32,0H952.5Z" transform="translate(-642.22 -204)"/><path d="M952.17,285.87a227.35,227.35,0,1,1-88.78,17.92,226.63,226.63,0,0,1,88.78-17.92m0-11c-132,0-239.08,107-239.08,239.08S820.13,753,952.17,753,1191.25,646,1191.25,514s-107-239.08-239.08-239.08Z" transform="translate(-642.22 -204)"/><rect class="cls-1" x="485.27" y="274.19" width="127.51" height="70.65"/><path d="M952,204H941.2l-.38,0h-1l-.37,0h-.12l-.37,0h-.11c-2,.08-3.89.18-5.84.3h0l-.38,0h-.1l-.39,0h0l-.39,0h-.1l-.37,0h-.12l-.27,0h-.22l-.26,0h-.22l-.17,0h-3a5.5,5.5,0,0,0,.43,11h.45c8-.64,16.07-1,24.1-1a5.5,5.5,0,0,0,0-11Zm-48.91,3.91a5.22,5.22,0,0,0-.88.07l-1.45.24h-.12l-.08,0h0l-.17,0H900l-.23,0h-.13q-11.11,1.89-21.92,4.55A5.5,5.5,0,0,0,879,223.8a5.4,5.4,0,0,0,1.31-.16c7.77-1.91,15.71-3.53,23.62-4.8a5.5,5.5,0,0,0-.87-10.93Zm-47.64,11.71a5.29,5.29,0,0,0-1.74.29l-1.2.4h0l-.08,0h0l-.07,0,0,0,0,0-.06,0-.09,0H852l0,0-.06,0h0l-.07,0h0l-.08,0h0l-.22.07h0l-.1,0h0l-.1,0h0q-5.44,1.88-10.8,3.94h0l-.1,0h0l-.1,0h0l-.21.09h0l-.09,0h0l-.08,0h0l-.08,0h0l-.11,0h0l-.09,0h0l-.06,0h0l-.06,0,0,0-.05,0h0l-.09,0,0,0-.05,0-.06,0,0,0-.06,0h0l-.07,0h0l-.34.13h0l-.09,0h0q-3.95,1.56-7.84,3.22a5.5,5.5,0,0,0,2.17,10.56,5.44,5.44,0,0,0,2.15-.44c7.37-3.15,15-6,22.53-8.56a5.5,5.5,0,0,0-1.74-10.72Zm-45.12,19.27a5.43,5.43,0,0,0-2.55.63q-3,1.56-5.86,3.16h0l-.5.29h0l-.17.09h0l-.16.09h0l-.16.09h0l-.15.09h0l-.14.08h0l-.14.08,0,0-.14.08,0,0-.12.07,0,0-.14.07,0,0-.13.08-.05,0-.09.05-.08,0-.1.06-.06,0-.12.07-.07,0-.07,0-.11.06-.07,0-.08.05-.07,0-.12.06,0,0-.13.07-.05,0-.09.05,0,0-.16.09,0,0-.15.09,0,0-.09,0h0l-.18.1,0,0-.17.1h0l-.3.17h0c-3.7,2.13-7.35,4.35-11,6.63a5.5,5.5,0,0,0,3,10.13,5.45,5.45,0,0,0,2.94-.85c6.76-4.29,13.78-8.36,20.86-12.09a5.5,5.5,0,0,0-2.57-10.36Zm-41.42,26.28a5.52,5.52,0,0,0-3.29,1.09q-10,7.55-19.37,15.86a5.5,5.5,0,0,0,7.31,8.22c6-5.32,12.27-10.46,18.66-15.28a5.5,5.5,0,0,0-3.31-9.89Zm-36.69,32.58a5.46,5.46,0,0,0-4,1.69q-6.62,6.9-12.82,14.21h0l-.37.44h0l-.12.14h0l-.25.29h0l-.12.14h0l-.25.29h0l-.12.14h0l-.24.29h0l-.11.14h0l-.11.14h0l-.11.13,0,0-.11.13,0,0-.11.13h0l-.1.13,0,0-.11.13,0,0-.11.13,0,0-.1.12v0l-.11.13,0,0-.1.12,0,0-.08.1,0,0-.09.11,0,.05-.1.11,0,.05-.06.08-.07.08-.06.08-.05.06-.08.09-.06.08,0,.05-.05.06a5.5,5.5,0,0,0,.79,7.73,5.43,5.43,0,0,0,3.47,1.24,5.5,5.5,0,0,0,4.27-2c5.06-6.2,10.44-12.28,16-18.06a5.49,5.49,0,0,0-4-9.3Zm-31,38a5.51,5.51,0,0,0-4.53,2.37q-2.62,3.81-5.15,7.7h0l-.12.18v0l-.17.27,0,0-.09.13,0,.06-.05.07-.07.11,0,.07,0,.08-.06.08,0,.09,0,.06-.08.12,0,0-.07.11,0,.05-.08.11,0,0-.09.13,0,0-.09.15h0l-.09.14v0l-.1.15v0c-.06.11-.13.21-.2.32h0l-.1.16h0q-3.29,5.2-6.37,10.55a5.5,5.5,0,1,0,9.53,5.49c4-6.92,8.33-13.78,12.88-20.37a5.51,5.51,0,0,0-4.52-8.63Zm-24.53,42.49a5.5,5.5,0,0,0-5,3.13q-3.21,6.76-6.09,13.69h0l0,.1h0c0,.11-.08.21-.13.32h0l0,.1h0l0,.1h0l-.09.21v0l0,.09v0l0,.08,0,0,0,.08v0l0,.09v0l0,.09,0,0,0,.06,0,.05,0,.05,0,.05,0,0,0,.06v0l0,.11,0,.06,0,0,0,.06v0l0,.06,0,0v.05l0,.05,0,.07,0,.07,0,.05,0,.05v.05l0,.06,0,0,0,.05,0,.06,0,.05,0,.09,0,.05v.05l0,.05,0,.05,0,0v.05l0,.05,0,.05,0,.05,0,.09,0,.05,0,.05,0,0,0,.06,0,.05,0,.05,0,.05,0,.05,0,.09,0,.05,0,.05,0,0,0,.05,0,.06v0l0,.06v0l0,.07,0,.06,0,.07,0,0,0,.06,0,.05,0,.06,0,0,0,.08h0l0,.11h0l0,.09v0l0,.06,0,0,0,.07,0,0,0,.08v0l-.08.22h0l0,.09v0l0,.1h0c-.44,1.14-.88,2.28-1.31,3.43a5.49,5.49,0,0,0,3.2,7.07,5.48,5.48,0,0,0,7.09-3.2c2.83-7.48,6-14.94,9.43-22.18a5.5,5.5,0,0,0-5-7.86Zm-17.35,45.89a5.5,5.5,0,0,0-5.27,4Q651.19,438,649,448.21v0l0,.1h0l-.05.23h0l0,.1v0l0,.08v.14l0,.11v0l0,.08v.32l0,.13h0l0,.08v.12c-.18.86-.36,1.73-.53,2.59a5.5,5.5,0,0,0,4.3,6.48,6,6,0,0,0,1.1.11,5.5,5.5,0,0,0,5.38-4.42c1.59-7.85,3.51-15.72,5.72-23.41a5.5,5.5,0,0,0-3.76-6.81,5.76,5.76,0,0,0-1.53-.21Zm-9.7,48.09a5.49,5.49,0,0,0-5.45,4.85l0,.1v2.15l0,.22v3.5l0,.11h0v.48h0v.85h0v.12h0v.24h0l0,.23h0v.25l0,.23h0v.13l0,.35h0v.13c0,.16,0,.31-.05.48h0q-.58,6.75-.88,13.57h0c0,.13,0,.24,0,.37h0v.12h0V501h0v.37h0v.6a5.5,5.5,0,0,0,5.28,5.7h.22a5.49,5.49,0,0,0,5.49-5.29c.31-8,.94-16.1,1.88-24a5.51,5.51,0,0,0-4.81-6.11l-.66,0Zm-1.86,49h-.23a5.49,5.49,0,0,0-5.27,5.72c0,.55,0,1.11.07,1.67h0v.38h0V530h0v.25q.55,11,1.88,21.71a5.49,5.49,0,0,0,5.45,4.82,5.12,5.12,0,0,0,.67,0,5.5,5.5,0,0,0,4.79-6.13c-1-7.93-1.62-16-2-24a5.5,5.5,0,0,0-5.49-5.27Zm5.94,48.7a6.05,6.05,0,0,0-1.11.11,5.51,5.51,0,0,0-4.28,6.5q.93,4.51,2,9h0l.09.37v0l0,.08h0c0,.12.05.24.08.36v0l0,.08v0l0,.07v0l.05.24v0l0,.06v.16l0,0,0,.08v.06l0,.07v.1l0,0v.11l0,.07v0l0,.09v0l0,.08v0l0,.08v0l0,.1h0l.06.23h0l0,.1h0l0,.11h0c0,.12.05.23.08.35h0c1,4,2.06,7.91,3.19,11.82a5.51,5.51,0,0,0,5.27,3.94,5.58,5.58,0,0,0,1.55-.22,5.5,5.5,0,0,0,3.74-6.82c-2.24-7.68-4.19-15.55-5.8-23.39a5.49,5.49,0,0,0-5.38-4.4Zm13.71,47.09a5.44,5.44,0,0,0-2,.37,5.5,5.5,0,0,0-3.19,7.07c.8,2.1,1.62,4.17,2.46,6.24h0l0,.09v0l0,.08v0l0,.08v0l0,.1v0l0,.07,0,0,0,.06,0,0,0,.06,0,0,0,.06,0,0,0,.1,0,0,0,.07,0,0,0,.06,0,.05v0l0,.06v0l.09.23,0,0,0,.06v0l0,.07v0l0,.07h0l.1.26h0l0,.08v0l0,.08h0a3.45,3.45,0,0,0,.14.34v0l0,.08h0l0,.08h0l.15.35h0l0,.08h0c.06.14.12.29.19.44h0l0,.09h0c.07.15.13.3.19.45h0l0,.08h0c.07.14.13.29.19.43v0l0,.08v0l0,.07h0l.1.24v0l0,.06v0l0,.06v0l0,.07h0l.06.14v0l0,0v0l0,.06,0,0,0,.06,0,0,0,0,0,.1,0,0,0,.07,0,0,0,.06,0,0,0,.06,0,0,0,.07v0l.05.1v0l0,.09v0l0,.07v0l0,.08v0l.09.2h0l0,.09v0l0,.08v0l.05.1h0q2,4.62,4.2,9.17a5.5,5.5,0,0,0,9.91-4.77c-3.45-7.22-6.65-14.67-9.5-22.15a5.5,5.5,0,0,0-5.14-3.54Zm21.15,44.27a5.49,5.49,0,0,0-4.76,8.24c.57,1,1.15,2,1.74,3v0l.1.17,0,0,.05.09,0,0,.09.15,0,.06.06.1.05.08,0,.07.06.12,0,0,0,.1,0,.06.07.11,0,.05.08.14,0,0,.08.13v0l.09.15,0,0,.09.15h0l.19.32h0l.1.16h0q4.62,7.6,9.66,14.9h0l.33.47h0l.22.31h0a5.5,5.5,0,0,0,9-6.28c-4.57-6.58-8.92-13.42-12.94-20.34a5.52,5.52,0,0,0-4.76-2.73Zm28,40.29a5.5,5.5,0,0,0-4.26,9l1.82,2.19h0l.36.43,0,0,.12.14,0,0,.07.08,0,0,.11.13,0,.05.08.1.06.06.05.07.09.1,0,.05.06.07.07.08.07.08,0,.06.09.1.05.06.07.08.05.06.08.09,0,.05.1.11,0,0,.09.09,0,0,.08.1,0,0,.1.12,0,0,.1.11,0,0,.1.11,0,0,.1.13,0,0,.11.12v0l.1.12,0,0,.11.13,0,0,.11.13h0l.11.13,0,0,.11.13,0,0,.11.13h0l.12.14h0l.12.14,0,0,.12.14h0l.13.14s0,0,0,0l.12.13v0l.12.13v0l.24.27,0,0,.12.14h0a3.33,3.33,0,0,1,.25.28h0l.12.14h0c.08.09.17.18.25.28h0l.12.14h0l.25.28h0l.13.14h0l.25.29h0l.13.14h0l.25.29h0l.13.14h0l.38.43h0l.38.42h0l.12.14h0l.25.29h0l.12.13h0l.25.28h0l.13.14h0l.26.29h0l.12.14h0l.25.28h0l.13.13h0l.26.28h0l.13.13v0l.25.27h0l.13.13v0l.12.13h0l.12.14h0l.12.13,0,0,.12.13h0l.12.13h0l.12.13v0l.13.13h0l.25.27v0l.13.13h0l.26.27h0l.13.14h0l.25.27h0l.13.13h0l.25.28h0l.13.14h0l.26.27h0l.13.14h0l.4.42h0l1.62,1.7a5.5,5.5,0,0,0,7.91-7.64c-5.56-5.77-11-11.82-16-18a5.52,5.52,0,0,0-4.26-2Zm34.08,35.3a5.51,5.51,0,0,0-3.64,9.63q5.06,4.46,10.3,8.69h0l.45.37s0,0,0,0l.15.12h0l.3.24h0l.15.11h0l.29.23v0l.14.11h0l.29.23h0l.14.11,0,0,.14.11h0l.14.11,0,0,.13.1,0,0,.14.11h0l.13.1,0,0,.13.1,0,0,.13.1,0,0,.13.09,0,0,.13.11,0,0,.13.1,0,0,.11.09,0,0,.13.09,0,0,.12.1,0,0,.1.08,0,0,.12.09,0,0,.12.09,0,0,.1.08,0,0,.12.09,0,0,.12.09.05,0,.09.08.06,0,.1.08,0,0,.11.08.05,0,.09.07.07,0,.09.07,0,0,.11.09.06,0,.09.07.07.05.08.07.05,0,.12.09,0,0,.09.07.08.06.07,0,.06.05.11.08.06.05.08.06.08.06.07,0,.09.07.08.06.07,0,.08.06.08.07.07.05.09.07.07.05.07,0,.08.06.09.07.06.05.1.08.07.05.07,0,.09.07.08.06.06,0,.11.08,0,.05.08,0,.08.06.09.07,0,0,.11.08.06,0,0,0a5.5,5.5,0,0,0,6.59-8.81c-6.41-4.79-12.7-9.91-18.71-15.21a5.5,5.5,0,0,0-3.64-1.38Zm39.28,29.41A5.5,5.5,0,0,0,787,776.48l0,0,.12.07,0,0,.14.09,0,0,.15.09h0l.15.1h0l.16.1h0l.49.31h0q9.93,6.18,20.34,11.63h0a5.5,5.5,0,0,0,5.09-9.75c-7.09-3.7-14.12-7.75-20.9-12a5.49,5.49,0,0,0-2.93-.84ZM833.4,789a5.5,5.5,0,0,0-2.16,10.56q11.49,4.86,23.43,8.81a5.37,5.37,0,0,0,1.71.28A5.5,5.5,0,0,0,858.1,798c-7.59-2.51-15.18-5.36-22.56-8.48a5.36,5.36,0,0,0-2.14-.44ZM880,804.43a5.5,5.5,0,0,0-1.29,10.85q3,.72,6,1.38h0l.08,0h0l.35.07h0l.07,0h0l.08,0h0l.11,0h.16l0,0h.22l.1,0h0l.08,0h.14l.1,0h0l.23.05h0l.1,0h0c3.46.74,6.92,1.42,10.42,2h0l.11,0h0l.11,0h0l.24,0h.25l.22,0h.33l.07,0h.28l.08,0h0c1.45.25,2.9.49,4.36.72a6.36,6.36,0,0,0,.86.07,5.5,5.5,0,0,0,.86-10.94c-7.92-1.25-15.87-2.84-23.64-4.72a5.26,5.26,0,0,0-1.3-.16Zm48.46,7.67a5.5,5.5,0,0,0-.42,11q7.82.58,15.74.8H953a5.5,5.5,0,0,0,0-11h-1c-7.71,0-15.5-.3-23.15-.88l-.42,0Zm73.45-3.17a5.67,5.67,0,0,0-.9.08c-7.88,1.3-15.93,2.29-23.92,3a5.5,5.5,0,0,0,.45,11l.45,0,.22,0h.26l.23,0h.26l.23,0h.26l.23,0h.26l.23,0h.26l.23,0h.26l.23,0h.26l.23,0h3.12l.25,0h.23l.28,0h.2l.29,0h.19l.39,0h0q3.84-.42,7.65-.94h.1l.37-.06h.12l.25,0h.24l.23,0H996l.1,0h.26l.23,0h0l.12,0h0c2-.29,4.09-.61,6.12-.94a5.5,5.5,0,0,0-.92-10.93Zm47.59-11.87a5.47,5.47,0,0,0-1.76.3c-7.58,2.56-15.36,4.84-23.13,6.77a5.5,5.5,0,0,0,1.33,10.84,5.18,5.18,0,0,0,1.34-.17q8.76-2.17,17.32-4.86h0c2.23-.69,4.45-1.42,6.66-2.16a5.51,5.51,0,0,0-1.76-10.72Zm45-19.41a5.42,5.42,0,0,0-2.57.65c-7.08,3.75-14.39,7.26-21.73,10.42a5.5,5.5,0,0,0,2.17,10.56,5.44,5.44,0,0,0,2.15-.44c2.27-1,4.5-2,6.74-3h0l.31-.14h0l.19-.08,0,0,.3-.13,0,0,.14-.06.06,0,.08,0,.11,0,.09,0,.06,0,.12,0,.07,0,.08,0,.12-.06.07,0,.08,0,.1,0,.09,0,.07,0,.12-.06.07,0,.09,0,.08,0,.11,0,.06,0,.12-.06.06,0,.11-.05.06,0,.12,0,.06,0,.13-.06,0,0,.11-.05.05,0,.13-.07,0,0,.14-.06,0,0,.12-.05,0,0,.14-.07.05,0,.14-.07,0,0,.12-.06h0l.14-.07.05,0,.14-.07,0,0,.14-.06,0,0,.14-.07,0,0,.14-.07h0l.13-.07h0l.14-.07,0,0,.15-.07,0,0,.13-.06,0,0,.15-.07,0,0,.15-.07h0l.14-.07,0,0,.15-.07,0,0,.15-.07h0l.13-.07h0l.15-.07,0,0,.15-.07h0l.14-.07h0l.15-.07,0,0,.14-.08h0l.13-.06,0,0,.14-.08,0,0,.15-.07h0l.12-.06,0,0,.14-.06,0,0,.14-.07h0l.13-.07,0,0,.13-.07.06,0,.13-.07,0,0,.13-.06,0,0,.14-.07.05,0,.12-.07,0,0,.12-.06,0,0,.13-.06,0,0,.12-.06.06,0,.11-.05,0,0,.13-.07.06,0,.11,0,.06,0,.11-.06,0,0,.13-.06.06,0,.12-.06,0,0,.12-.06,0,0,.13-.07.06,0,.1,0,.07,0,.11,0,0,0,.13-.07.06,0,.1,0,.07,0,.1,0,.07,0,.12-.07.06,0,.09-.05.09,0,.1,0,.06,0,.12-.07.06,0,.09-.05.08,0,.1,0,.07,0,.12-.07.06,0,.09,0,.09,0,.09-.05.07,0,.12-.07.06,0,.08,0,.09,0,.1-.05.06,0,.12-.06.07,0,.08,0,.09-.05.09,0,.07,0,.1-.06,0,0a5.51,5.51,0,0,0-2.59-10.36Zm41.34-26.41a5.51,5.51,0,0,0-3.32,1.12c-6.38,4.84-13,9.48-19.77,13.79a5.5,5.5,0,0,0,5.92,9.27l1.15-.74h0l.16-.1h0l.31-.2,0,0,.15-.09,0,0,.15-.09h0l.13-.09,0,0,.13-.08,0,0,.13-.09,0,0,.1-.07.06,0,.12-.08,0,0,.11-.07.06,0,.09-.06.06,0,.11-.08.07,0,.08-.06.09-.06.07,0,.1-.07.07,0,.08,0,.06,0,.12-.08,0,0,.13-.09.05,0,.08,0,0,0,.14-.09,0,0,.15-.1,0,0,.09-.06h0l.17-.12,0,0,.17-.11h0l.27-.18,0,0,.16-.11,0,0,.28-.18,0,0,.17-.11h0l.28-.19h0l.17-.11,0,0,.28-.19h0l.17-.11h0l.28-.19h0l.17-.12h0l.47-.32h0l.28-.19h0l.17-.12h0l.28-.19h0l.17-.12h0l.27-.19,0,0,.15-.11,0,0,.15-.1,0,0,.08-.06,0,0,.15-.11,0,0,.16-.11h0l.09-.07h0l.15-.11,0,0,.14-.09,0,0,.08-.06,0,0,.12-.09.05,0,.12-.08.06,0,.07-.05.1-.07.07-.05.07,0,.1-.07.07,0,.07-.05.11-.07.06-.05.08,0,.07,0,.1-.07,0,0,.12-.08,0,0,.1-.07.06,0,.1-.07,0,0,.12-.08,0,0,.11-.08.05,0,.11-.07,0,0,.12-.09,0,0,.12-.09,0,0,.12-.08,0,0,.12-.09,0,0,.13-.1h0l.13-.09,0,0,.13-.1,0,0,.14-.1h0l.14-.1h0l.14-.1,0,0,.14-.1h0l.14-.1h0l.14-.11h0l.14-.11h0l.14-.11h0l.15-.1h0l.47-.34h0q2.2-1.61,4.38-3.26a5.5,5.5,0,0,0-3.33-9.88Zm36.6-32.69a5.5,5.5,0,0,0-4,1.7c-5.52,5.8-11.35,11.44-17.32,16.78a5.5,5.5,0,1,0,7.33,8.2q9.33-8.33,18-17.39a5.5,5.5,0,0,0-4-9.29Zm30.9-38.12a5.52,5.52,0,0,0-4.55,2.39c-4.52,6.6-9.37,13.11-14.41,19.33a5.5,5.5,0,1,0,8.54,6.92q2.46-3,4.84-6.12h0l.71-.93s0,0,0,0l.12-.16h0l.23-.3h0l.11-.15h0l.23-.3h0l.12-.15s0,0,0,0l.35-.46h0c.11-.16.23-.31.34-.46h0l.35-.46h0c.11-.16.23-.32.35-.47h0l.35-.46h0l1.39-1.89h0l.46-.63s0,0,0,0l.69-1h0l.34-.48h0l.34-.47h0l.34-.47h0l.34-.47h0l.11-.16h0l.21-.31h0l.11-.15v0l.1-.14h0l.1-.14,0,0,.09-.14,0,0,.1-.14h0l.1-.14,0,0,.09-.13,0,0,.09-.12,0,0,.08-.11,0,0,.09-.13,0,0,.07-.1,0-.07.06-.08,0-.06.08-.11,0-.06.06-.09.06-.08,0-.08.06-.09.06-.08.05-.07,0,0,.1-.13,0,0,.19-.27h0a1.13,1.13,0,0,1,.12-.18h0l.29-.41a5.5,5.5,0,0,0-1.44-7.63,5.41,5.41,0,0,0-3.1-1Zm24.38-42.57a5.49,5.49,0,0,0-5,3.16c-3.4,7.24-7.15,14.44-11.13,21.39a5.49,5.49,0,0,0,2,7.5,5.4,5.4,0,0,0,2.73.73,5.49,5.49,0,0,0,4.78-2.77q1.54-2.7,3-5.43h0c.1-.17.19-.34.28-.51h0c.1-.16.19-.33.28-.5h0l.19-.34h0l.09-.17h0l.09-.16h0l.18-.33v0l.09-.16h0l.09-.17h0l.09-.15v0l.08-.15v0l.08-.15h0l.08-.16,0,0,.08-.16v0l.07-.14v0l.09-.16v0l.08-.16h0l.08-.15v0l.08-.15,0,0,.07-.15,0,0,.07-.14v0l.08-.15,0,0,.08-.15v0l.07-.13v0l.08-.15,0,0,.08-.15v0l.07-.12,0,0,.07-.14,0,0,.08-.14v0l.07-.13,0,0,.07-.14,0,0,.08-.14v0l.07-.12,0,0,.07-.14,0-.05.07-.14,0,0,.06-.11,0,0,.07-.13,0-.05.07-.14,0,0,.06-.11,0,0,.07-.13,0-.06.07-.13,0,0,0-.1,0-.05.06-.13,0-.07.05-.1,0-.08,0-.09,0-.06.06-.12,0-.07.06-.11,0-.07,0-.09,0-.06.06-.13,0-.06,0-.1,0-.09,0-.08,0-.08.06-.11,0-.07,0-.09.06-.1,0-.07,0-.09.05-.1,0-.08,0-.07.06-.12,0-.06.06-.12,0-.07,0-.09,0-.05.06-.14,0,0,.08-.16v0l0-.09,0,0,.08-.16,0,0,.09-.19h0l0-.1v0l.09-.16,0,0c0-.1.09-.2.14-.3v0l.09-.18v0l.15-.31h0l.1-.21h0q.84-1.73,1.65-3.45a5.51,5.51,0,0,0-5-7.83Zm17.19-45.94a5.51,5.51,0,0,0-5.29,4c-2.19,7.7-4.72,15.4-7.52,22.89a5.5,5.5,0,1,0,10.3,3.86l.51-1.37h0l0-.08v0a3.62,3.62,0,0,0,.13-.35h0l0-.09h0l0-.08h0c0-.12.09-.23.13-.35v0l0-.07v0l0-.07v0l.06-.15h0l0-.06,0,0v-.05l0,0,0-.06,0,0,0,0,0-.08v0l0-.08,0,0,0-.06v0l0-.07v0l0-.08v0l0-.1,0,0,0-.07,0,0,0-.06v0l0-.08v0a1.29,1.29,0,0,0,.07-.21v0l0-.09h0l0-.09v0l0-.08v0l.07-.22h0l0-.09v0l0-.1h0l.12-.34h0l0-.11h0q3.18-9,5.8-18.22a5.51,5.51,0,0,0-3.79-6.78,5.67,5.67,0,0,0-1.51-.21Zm9.54-48.11a5.5,5.5,0,0,0-5.46,4.87c-.92,8-2.17,16-3.73,23.81a5.5,5.5,0,0,0,4.33,6.46,5.65,5.65,0,0,0,1.08.11,5.49,5.49,0,0,0,5.38-4.43q.65-3.2,1.2-6.4h0c0-.13,0-.25.07-.38h0v-.21l0-.23v-.32l0-.11v-.36h0l0-.12v-.25c.91-5.4,1.69-10.83,2.32-16.33a5.5,5.5,0,0,0-4.83-6.07l-.64,0Zm1.73-49H1256a5.51,5.51,0,0,0-5.25,5.74c.2,4.47.3,9,.3,13.5,0,3.53-.06,7.11-.19,10.63a5.51,5.51,0,0,0,5.31,5.69h.19a5.5,5.5,0,0,0,5.5-5.3,2.44,2.44,0,0,1,0-.27h0c.06-1.83.11-3.65.14-5.48h0v-.36h0v-.14c0-.1,0-.23,0-.34v-6h0c0-.13,0-.24,0-.37v-.25h0v-.11h0q0-4.26-.18-8.47v-.53h0c0-.87-.06-1.74-.1-2.61a5.49,5.49,0,0,0-5.49-5.25Zm-6.1-48.69a5.52,5.52,0,0,0-5.39,6.63c1.63,7.82,3,15.82,4,23.78a5.5,5.5,0,0,0,5.45,4.81,5.32,5.32,0,0,0,.69,0,5.5,5.5,0,0,0,4.77-6.14v-1.45l0-.22v-.26l0-.23v-.36h0l0-.12v-.25c0-.12,0-.23,0-.35v0l0-.1h0c0-.12,0-.23-.05-.35v-.14l0-.11h0l0-.24h0v-.12l0-.11h0l0-.23h0l0-.1v-.13h0l0-.23v0l0-.1v-.12h0l0-.24h0l0-.11v-.14l0-.23h0l0-.11h0v-.12l0-.23h0l0-.1v-.14l0-.23v0l0-.1v-.24h0l0-.11v0l0-.1v0l0-.09v-.52l0-.08v0l0-.11h0l0-.1v-.37h0l0-.1v0l0-.08v0l0-.08v0l0-.11v-.86l0-.08v0l0-.09v-1.28l0-.12v-.47l0-.11v-.26c0-.08,0-.16,0-.24v-.22c0-.09,0-.18-.05-.27h0v-.2c0-.12,0-.25-.07-.37h0l0-.09h0l-.06-.38h0l0-.1h0q-.87-5-1.9-9.93a5.51,5.51,0,0,0-5.38-4.38ZM1236.23,399a5.5,5.5,0,0,0-5.13,7.48c2.88,7.47,5.48,15.15,7.74,22.82a5.51,5.51,0,0,0,5.28,3.95,5.2,5.2,0,0,0,1.55-.23,5.49,5.49,0,0,0,3.72-6.83c-.2-.69-.4-1.38-.61-2.06h0c0-.15-.1-.3-.14-.46h0l0-.07v0l0-.07v0l0-.06,0-.1v0l0-.08v0l0-.06,0,0,0-.07v0c0-.07,0-.13-.06-.21v0l0-.09v0l0-.09v0c0-.15-.09-.29-.13-.44h0l0-.11h0q-1.47-4.73-3.08-9.38h0l-.12-.33h0l0-.1h0l0-.1h0l-.07-.22h0l0-.1h0l0-.1h0l0-.1h0l-.08-.22v0l0-.08v0l0-.08v0l0-.08v0l0-.11v0l0-.08v0l0-.08v0l0-.07v0l0-.08v0l0-.1v0l0-.06v-.05l0-.06v0l0-.07v0l0-.1v0l0-.07,0-.05,0-.06v0l0-.06,0-.05,0,0,0-.09,0-.05,0-.06,0,0,0-.05V409l0-.05,0-.06,0,0,0-.08v0l0-.08,0,0,0-.05v-.05l0-.06v0l0-.07,0,0,0-.09,0,0,0-.06,0-.05,0-.06,0,0,0-.06v-.05l0-.06,0-.06,0-.08v-.05l0,0,0-.05,0,0,0-.06,0-.05,0,0,0-.07,0-.06,0-.07v0l0-.06v0l0-.07v0l0-.08v0l0-.1v0l0-.07,0,0,0-.07,0,0,0-.07v0l-.08-.21v0l0-.08v0l0-.08v0l0-.1h0l-.08-.21h0l0-.1h0l-1.09-2.88a5.52,5.52,0,0,0-5.13-3.51Zm-21.3-44.19a5.5,5.5,0,0,0-4.74,8.28c4,6.91,7.86,14.07,11.33,21.27a5.5,5.5,0,1,0,9.91-4.77c-.9-1.88-1.83-3.75-2.77-5.61h0a3.59,3.59,0,0,1-.17-.34h0l-.08-.16v0l-.09-.16h0l-.08-.16v0l-.08-.15v0l-.07-.14,0,0-.07-.14,0-.05-.07-.14,0,0,0-.11,0-.06-.06-.12,0-.06-.07-.12,0-.07,0-.08,0-.09,0-.09,0-.07-.05-.1,0-.1,0-.06-.07-.13,0-.05-.05-.09,0,0-.08-.16,0-.05-.09-.16v0l-.16-.29v0l-.1-.2h0a3,3,0,0,1-.16-.31h0q-3.26-6.19-6.79-12.22a5.49,5.49,0,0,0-4.74-2.7Zm-28.12-40.2a5.49,5.49,0,0,0-4.23,9c5.1,6.17,10,12.63,14.6,19.18a5.5,5.5,0,1,0,9-6.3v0l-.1-.14h0l-.1-.14,0,0-.1-.14v0l-.1-.15h0l-.1-.14,0,0-.09-.13,0,0-.09-.13,0,0-.08-.12,0,0-.1-.13,0,0-.1-.13,0,0-.08-.12,0,0-.1-.13,0,0-.1-.13,0,0-.08-.12,0,0-.1-.13,0,0-.09-.12,0,0-.08-.11,0,0-.09-.13,0,0-.1-.13,0,0-.08-.11,0,0-.09-.13,0,0-.09-.13,0,0-.09-.12,0,0-.09-.13,0,0-.09-.13,0,0-.08-.12,0,0-.08-.12,0,0-.09-.13,0,0-.1-.13v0l-.09-.12,0,0-.1-.13,0,0-.1-.13,0,0-.08-.12,0,0-.09-.13,0,0-.1-.14h0l-.09-.13,0,0-.1-.13,0,0-.11-.14v0l-.11-.13v0l-.1-.14,0,0-.1-.15h0l-.11-.15h0l-.11-.14v0l-.11-.14v0l-.11-.15h0l-.11-.14v0l-.11-.15h0l-.22-.31h0l-.35-.46h0l-.47-.63h0q-4.17-5.53-8.58-10.88h0l-.13-.15a5.48,5.48,0,0,0-4.24-2Zm-34.18-35.2a5.5,5.5,0,0,0-3.63,9.64c6,5.28,11.9,10.86,17.48,16.61a5.5,5.5,0,0,0,7.91-7.65l-2.28-2.32h0l-.23-.24,0,0-.11-.1,0-.05-.07-.08-.08-.08,0-.05-.1-.1,0,0-.09-.09,0,0-.11-.11,0,0-.11-.12h0l-.12-.12v0l-.13-.12v0l-.13-.13h0q-6.93-6.89-14.28-13.32a5.46,5.46,0,0,0-3.62-1.37Zm-39.37-29.28a5.5,5.5,0,0,0-2.92,10.17c6.78,4.24,13.48,8.82,19.91,13.59a5.4,5.4,0,0,0,3.27,1.09,5.5,5.5,0,0,0,3.29-9.91h0l-.15-.11h0l-.14-.1,0,0-.13-.09,0,0-.11-.08,0,0-.12-.1,0,0-.12-.09-.06,0-.08-.07-.08-.05-.08-.06-.07-.05-.07-.06-.1-.07,0,0-.13-.09,0,0-.08-.06h0l-.17-.13h0l-.17-.13h0l-.28-.21h0q-2.2-1.6-4.44-3.18h0l-.47-.32h0l-.18-.13h0l-.09-.07h0l-.18-.12,0,0-.14-.1,0,0-.07-.06-.08-.05-.1-.07-.06,0-.09-.07-.08,0-.07-.05-.11-.07-.06,0-.08-.06-.08-.06-.09-.06-.06,0-.12-.08,0,0-.11-.08,0,0-.12-.08,0,0-.13-.09,0,0-.13-.09h0l-.15-.09,0,0-.14-.1h0l-.31-.21h0q-5-3.41-10.14-6.62a5.45,5.45,0,0,0-2.91-.84Zm-43.56-22.57a5.5,5.5,0,0,0-2.13,10.57c7.38,3.1,14.72,6.53,21.83,10.22a5.5,5.5,0,1,0,5.06-9.77l-3.29-1.68h0l-.16-.08,0,0-.16-.08h0l-.16-.08h0l-.15-.07,0,0-.13-.07,0,0-.12-.06-.05,0-.13-.07,0,0-.12,0-.06,0-.1,0-.07,0-.12-.06-.07,0-.07,0-.12-.06-.07,0-.08,0-.06,0-.14-.07,0,0-.16-.08,0,0-.3-.14h0l-.19-.09h0q-8-3.93-16.29-7.39a5.36,5.36,0,0,0-2.1-.42Zm-46.63-15.24a5.5,5.5,0,0,0-1.27,10.85c7.78,1.86,15.58,4.06,23.19,6.55a5.6,5.6,0,0,0,1.71.27,5.5,5.5,0,0,0,1.71-10.73c-2.41-.78-4.82-1.54-7.25-2.27h0l-.46-.13h0l-.08,0h0l-.34-.1h0l-.07,0h0l-.07,0h0l-.06,0-.09,0,0,0-.06,0h0l-.06,0h0l-.07,0h0l-.07,0,0,0-.1,0h0l-.07,0h0l-.08,0h0l-.1,0h0l-.22-.06h0l-.08,0h0l-.1,0h0l-.22-.06h0l-.11,0h0l-.46-.13h0l-.11,0h0q-6.54-1.87-13.2-3.47a5.66,5.66,0,0,0-1.28-.15Zm-48.48-7.51a5.5,5.5,0,0,0-.4,11c8,.59,16.06,1.5,24,2.73a6.07,6.07,0,0,0,.85.06,5.5,5.5,0,0,0,.85-10.93l-3.89-.58h-.25l-.11,0h-.79l-.25,0h-.12q-9.63-1.32-19.44-2Z" transform="translate(-642.22 -204)"/></svg>